<?xml version="1.0" encoding="UTF-8" standalone="no"?>
<!DOCTYPE svg PUBLIC "-//W3C//DTD SVG 1.1//EN"
 "http://www.w3.org/Graphics/SVG/1.1/DTD/svg11.dtd">
<!-- Generated by graphviz version 2.43.0 (0)
 -->
<!-- Title: packages_patientenverwaltung Pages: 1 -->
<svg width="1075pt" height="404pt"
 viewBox="0.00 0.00 1075.04 404.00" xmlns="http://www.w3.org/2000/svg" xmlns:xlink="http://www.w3.org/1999/xlink">
<g id="graph0" class="graph" transform="scale(1 1) rotate(0) translate(4 400)">
<title>packages_patientenverwaltung</title>
<polygon fill="white" stroke="transparent" points="-4,4 -4,-400 1071.04,-400 1071.04,4 -4,4"/>
<!-- 0 -->
<g id="node1" class="node">
<title>0</title>
<polygon fill="none" stroke="black" points="799.04,-36 731.04,-36 731.04,0 799.04,0 799.04,-36"/>
<text text-anchor="middle" x="765.04" y="-14.3" font-family="Times,serif" font-size="14.00">__init__</text>
</g>
<!-- 1 -->
<g id="node2" class="node">
<title>1</title>
<polygon fill="none" stroke="black" points="871.04,-36 817.04,-36 817.04,0 871.04,0 871.04,-36"/>
<text text-anchor="middle" x="844.04" y="-14.3" font-family="Times,serif" font-size="14.00">app</text>
</g>
<!-- 3 -->
<g id="node4" class="node">
<title>3</title>
<polygon fill="none" stroke="black" points="232.54,-324 151.54,-324 151.54,-288 232.54,-288 232.54,-324"/>
<text text-anchor="middle" x="192.04" y="-302.3" font-family="Times,serif" font-size="14.00">database</text>
</g>
<!-- 1&#45;&gt;3 -->
<g id="edge1" class="edge">
<title>1&#45;&gt;3</title>
<path fill="none" stroke="black" d="M816.91,-33.06C813.97,-34.21 810.98,-35.22 808.04,-36 479.52,-123.03 318.54,65.62 51.04,-144 10.98,-175.39 -17.41,-211.23 13.04,-252 28.48,-272.68 94.03,-288.15 141.33,-296.88"/>
<polygon fill="black" stroke="black" points="151.42,-298.69 140.79,-301.36 146.5,-297.81 141.58,-296.93 141.58,-296.93 141.58,-296.93 146.5,-297.81 142.38,-292.5 151.42,-298.69 151.42,-298.69"/>
</g>
<!-- 5 -->
<g id="node6" class="node">
<title>5</title>
<polygon fill="none" stroke="black" points="358.54,-396 239.54,-396 239.54,-360 358.54,-360 358.54,-396"/>
<text text-anchor="middle" x="299.04" y="-374.3" font-family="Times,serif" font-size="14.00">global_module</text>
</g>
<!-- 1&#45;&gt;5 -->
<g id="edge2" class="edge">
<title>1&#45;&gt;5</title>
<path fill="none" stroke="black" d="M863.35,-36.18C888.98,-60.99 931.04,-109.54 931.04,-161 931.04,-161 931.04,-161 931.04,-235 931.04,-283.46 910,-299.76 868.04,-324 784.83,-372.06 501.77,-377.74 368.94,-377.65"/>
<polygon fill="black" stroke="black" points="358.87,-377.63 368.88,-373.15 363.87,-377.64 368.87,-377.65 368.87,-377.65 368.87,-377.65 363.87,-377.64 368.86,-382.15 358.87,-377.63 358.87,-377.63"/>
</g>
<!-- 6 -->
<g id="node7" class="node">
<title>6</title>
<polygon fill="none" stroke="black" points="859.04,-324 741.04,-324 741.04,-288 859.04,-288 859.04,-324"/>
<text text-anchor="middle" x="800.04" y="-302.3" font-family="Times,serif" font-size="14.00">image_base64</text>
</g>
<!-- 1&#45;&gt;6 -->
<g id="edge3" class="edge">
<title>1&#45;&gt;6</title>
<path fill="none" stroke="black" d="M841.56,-36.26C835.98,-74.93 821.93,-171.42 809.04,-252 807.69,-260.42 806.16,-269.59 804.74,-277.89"/>
<polygon fill="black" stroke="black" points="803.04,-287.83 800.29,-277.21 803.88,-282.9 804.73,-277.97 804.73,-277.97 804.73,-277.97 803.88,-282.9 809.16,-278.73 803.04,-287.83 803.04,-287.83"/>
</g>
<!-- 8 -->
<g id="node9" class="node">
<title>8</title>
<polygon fill="none" stroke="black" points="403.04,-108 349.04,-108 349.04,-72 403.04,-72 403.04,-108"/>
<text text-anchor="middle" x="376.04" y="-86.3" font-family="Times,serif" font-size="14.00">login</text>
</g>
<!-- 1&#45;&gt;8 -->
<g id="edge4" class="edge">
<title>1&#45;&gt;8</title>
<path fill="none" stroke="black" d="M816.87,-32.93C813.94,-34.1 810.96,-35.15 808.04,-36 666.09,-77.07 488.93,-86.32 413.18,-88.4"/>
<polygon fill="black" stroke="black" points="403.18,-88.65 413.06,-83.9 408.18,-88.52 413.17,-88.4 413.17,-88.4 413.17,-88.4 408.18,-88.52 413.29,-92.9 403.18,-88.65 403.18,-88.65"/>
</g>
<!-- 12 -->
<g id="node13" class="node">
<title>12</title>
<polygon fill="none" stroke="black" points="1067.04,-108 959.04,-108 959.04,-72 1067.04,-72 1067.04,-108"/>
<text text-anchor="middle" x="1013.04" y="-86.3" font-family="Times,serif" font-size="14.00">root_support</text>
</g>
<!-- 1&#45;&gt;12 -->
<g id="edge5" class="edge">
<title>1&#45;&gt;12</title>
<path fill="none" stroke="black" d="M871.19,-30.25C895.69,-40.39 932.37,-55.59 962.29,-67.98"/>
<polygon fill="black" stroke="black" points="971.74,-71.9 960.78,-72.23 967.12,-69.98 962.51,-68.07 962.51,-68.07 962.51,-68.07 967.12,-69.98 964.23,-63.91 971.74,-71.9 971.74,-71.9"/>
</g>
<!-- 14 -->
<g id="node15" class="node">
<title>14</title>
<polygon fill="none" stroke="black" points="903.04,-180 849.04,-180 849.04,-144 903.04,-144 903.04,-180"/>
<text text-anchor="middle" x="876.04" y="-158.3" font-family="Times,serif" font-size="14.00">toast</text>
</g>
<!-- 1&#45;&gt;14 -->
<g id="edge6" class="edge">
<title>1&#45;&gt;14</title>
<path fill="none" stroke="black" d="M847.9,-36.13C853.37,-60.44 863.46,-105.18 869.95,-133.99"/>
<polygon fill="black" stroke="black" points="872.16,-143.81 865.57,-135.04 871.06,-138.93 869.96,-134.06 869.96,-134.06 869.96,-134.06 871.06,-138.93 874.35,-133.07 872.16,-143.81 872.16,-143.81"/>
</g>
<!-- 2 -->
<g id="node3" class="node">
<title>2</title>
<polygon fill="none" stroke="black" points="258.04,-252 180.04,-252 180.04,-216 258.04,-216 258.04,-252"/>
<text text-anchor="middle" x="219.04" y="-230.3" font-family="Times,serif" font-size="14.00">calender</text>
</g>
<!-- 2&#45;&gt;3 -->
<g id="edge7" class="edge">
<title>2&#45;&gt;3</title>
<path fill="none" stroke="black" d="M212.36,-252.3C209.32,-260.19 205.65,-269.7 202.28,-278.45"/>
<polygon fill="black" stroke="black" points="198.63,-287.9 198.03,-276.95 200.43,-283.23 202.23,-278.57 202.23,-278.57 202.23,-278.57 200.43,-283.23 206.43,-280.19 198.63,-287.9 198.63,-287.9"/>
</g>
<!-- 2&#45;&gt;5 -->
<g id="edge8" class="edge">
<title>2&#45;&gt;5</title>
<path fill="none" stroke="black" d="M228.69,-252.13C242.5,-276.65 268.03,-321.97 284.24,-350.74"/>
<polygon fill="black" stroke="black" points="289.35,-359.81 280.52,-353.31 286.9,-355.45 284.44,-351.1 284.44,-351.1 284.44,-351.1 286.9,-355.45 288.36,-348.89 289.35,-359.81 289.35,-359.81"/>
</g>
<!-- 13 -->
<g id="node14" class="node">
<title>13</title>
<polygon fill="none" stroke="black" points="557.54,-324 408.54,-324 408.54,-288 557.54,-288 557.54,-324"/>
<text text-anchor="middle" x="483.04" y="-302.3" font-family="Times,serif" font-size="14.00">scrollbar_treeview</text>
</g>
<!-- 2&#45;&gt;13 -->
<g id="edge9" class="edge">
<title>2&#45;&gt;13</title>
<path fill="none" stroke="black" d="M258.25,-248.96C261.55,-250.03 264.84,-251.05 268.04,-252 310.69,-264.63 358.7,-276.66 398.51,-286.07"/>
<polygon fill="black" stroke="black" points="408.45,-288.4 397.69,-290.5 403.59,-287.26 398.72,-286.12 398.72,-286.12 398.72,-286.12 403.59,-287.26 399.75,-281.73 408.45,-288.4 408.45,-288.4"/>
</g>
<!-- 15 -->
<g id="node16" class="node">
<title>15</title>
<polygon fill="none" stroke="black" points="390.54,-324 327.54,-324 327.54,-288 390.54,-288 390.54,-324"/>
<text text-anchor="middle" x="359.04" y="-302.3" font-family="Times,serif" font-size="14.00">tooltip</text>
</g>
<!-- 2&#45;&gt;15 -->
<g id="edge10" class="edge">
<title>2&#45;&gt;15</title>
<path fill="none" stroke="black" d="M253.28,-252.12C272.94,-261.95 297.74,-274.35 318.38,-284.67"/>
<polygon fill="black" stroke="black" points="327.54,-289.25 316.58,-288.8 323.06,-287.01 318.59,-284.78 318.59,-284.78 318.59,-284.78 323.06,-287.01 320.6,-280.75 327.54,-289.25 327.54,-289.25"/>
</g>
<!-- 3&#45;&gt;5 -->
<g id="edge11" class="edge">
<title>3&#45;&gt;5</title>
<path fill="none" stroke="black" d="M218.21,-324.12C232.07,-333.19 249.28,-344.45 264.25,-354.24"/>
<polygon fill="black" stroke="black" points="272.76,-359.81 261.93,-358.1 268.58,-357.07 264.39,-354.34 264.39,-354.34 264.39,-354.34 268.58,-357.07 266.86,-350.57 272.76,-359.81 272.76,-359.81"/>
</g>
<!-- 4 -->
<g id="node5" class="node">
<title>4</title>
<polygon fill="none" stroke="black" points="690.04,-252 556.04,-252 556.04,-216 690.04,-216 690.04,-252"/>
<text text-anchor="middle" x="623.04" y="-230.3" font-family="Times,serif" font-size="14.00">gen_rechnungen</text>
</g>
<!-- 4&#45;&gt;3 -->
<g id="edge12" class="edge">
<title>4&#45;&gt;3</title>
<path fill="none" stroke="black" d="M555.95,-250.28C552.94,-250.88 549.96,-251.46 547.04,-252 489.7,-262.68 326.4,-286.08 242.76,-297.89"/>
<polygon fill="black" stroke="black" points="232.73,-299.3 242,-293.45 237.68,-298.6 242.63,-297.9 242.63,-297.9 242.63,-297.9 237.68,-298.6 243.26,-302.36 232.73,-299.3 232.73,-299.3"/>
</g>
<!-- 4&#45;&gt;5 -->
<g id="edge13" class="edge">
<title>4&#45;&gt;5</title>
<path fill="none" stroke="black" d="M620.4,-252.35C616.33,-272.77 606.5,-306.17 584.04,-324 551.47,-349.85 442.22,-364.41 368.84,-371.48"/>
<polygon fill="black" stroke="black" points="358.73,-372.43 368.27,-367.02 363.71,-371.97 368.69,-371.5 368.69,-371.5 368.69,-371.5 363.71,-371.97 369.11,-375.98 358.73,-372.43 358.73,-372.43"/>
</g>
<!-- 4&#45;&gt;6 -->
<g id="edge14" class="edge">
<title>4&#45;&gt;6</title>
<path fill="none" stroke="black" d="M666.34,-252.12C690.75,-261.78 721.43,-273.91 747.25,-284.12"/>
<polygon fill="black" stroke="black" points="756.88,-287.93 745.92,-288.44 752.23,-286.09 747.58,-284.25 747.58,-284.25 747.58,-284.25 752.23,-286.09 749.23,-280.07 756.88,-287.93 756.88,-287.93"/>
</g>
<!-- 4&#45;&gt;13 -->
<g id="edge15" class="edge">
<title>4&#45;&gt;13</title>
<path fill="none" stroke="black" d="M588.79,-252.12C569.98,-261.53 546.45,-273.29 526.37,-283.33"/>
<polygon fill="black" stroke="black" points="517.42,-287.81 524.35,-279.31 521.89,-285.57 526.36,-283.34 526.36,-283.34 526.36,-283.34 521.89,-285.57 528.37,-287.36 517.42,-287.81 517.42,-287.81"/>
</g>
<!-- 4&#45;&gt;15 -->
<g id="edge16" class="edge">
<title>4&#45;&gt;15</title>
<path fill="none" stroke="black" d="M556.02,-250.36C502.49,-262.71 432.41,-279.09 400.54,-288.27"/>
<polygon fill="black" stroke="black" points="390.63,-291.31 398.88,-284.08 395.41,-289.85 400.19,-288.38 400.19,-288.38 400.19,-288.38 395.41,-289.85 401.51,-292.68 390.63,-291.31 390.63,-291.31"/>
</g>
<!-- 7 -->
<g id="node8" class="node">
<title>7</title>
<polygon fill="none" stroke="black" points="124.04,-252 32.04,-252 32.04,-216 124.04,-216 124.04,-252"/>
<text text-anchor="middle" x="78.04" y="-230.3" font-family="Times,serif" font-size="14.00">leistungen</text>
</g>
<!-- 7&#45;&gt;3 -->
<g id="edge17" class="edge">
<title>7&#45;&gt;3</title>
<path fill="none" stroke="black" d="M105.92,-252.12C120.83,-261.28 139.37,-272.66 155.42,-282.52"/>
<polygon fill="black" stroke="black" points="164.04,-287.81 153.17,-286.41 159.78,-285.19 155.52,-282.58 155.52,-282.58 155.52,-282.58 159.78,-285.19 157.88,-278.74 164.04,-287.81 164.04,-287.81"/>
</g>
<!-- 7&#45;&gt;5 -->
<g id="edge18" class="edge">
<title>7&#45;&gt;5</title>
<path fill="none" stroke="black" d="M86.23,-252.23C96.56,-272.22 116.17,-304.88 142.04,-324 167.71,-342.97 200.62,-355.45 229.67,-363.51"/>
<polygon fill="black" stroke="black" points="239.36,-366.07 228.54,-367.86 234.53,-364.79 229.69,-363.51 229.69,-363.51 229.69,-363.51 234.53,-364.79 230.85,-359.16 239.36,-366.07 239.36,-366.07"/>
</g>
<!-- 7&#45;&gt;13 -->
<g id="edge19" class="edge">
<title>7&#45;&gt;13</title>
<path fill="none" stroke="black" d="M124.36,-243.7C139.25,-246.44 155.83,-249.41 171.04,-252 269.43,-268.72 296.95,-269.62 398.36,-287.74"/>
<polygon fill="black" stroke="black" points="408.41,-289.55 397.77,-292.2 403.49,-288.66 398.57,-287.78 398.57,-287.78 398.57,-287.78 403.49,-288.66 399.37,-283.35 408.41,-289.55 408.41,-289.55"/>
</g>
<!-- 7&#45;&gt;15 -->
<g id="edge20" class="edge">
<title>7&#45;&gt;15</title>
<path fill="none" stroke="black" d="M124.12,-246.48C177.84,-259.86 265.83,-281.78 317.51,-294.65"/>
<polygon fill="black" stroke="black" points="327.34,-297.1 316.55,-299.05 322.49,-295.9 317.64,-294.69 317.64,-294.69 317.64,-294.69 322.49,-295.9 318.72,-290.32 327.34,-297.1 327.34,-297.1"/>
</g>
<!-- 8&#45;&gt;2 -->
<g id="edge21" class="edge">
<title>8&#45;&gt;2</title>
<path fill="none" stroke="black" d="M357.1,-108.13C329.28,-133.29 277.25,-180.35 245.62,-208.96"/>
<polygon fill="black" stroke="black" points="238.04,-215.81 242.44,-205.77 241.75,-212.46 245.46,-209.1 245.46,-209.1 245.46,-209.1 241.75,-212.46 248.48,-212.44 238.04,-215.81 238.04,-215.81"/>
</g>
<!-- 8&#45;&gt;3 -->
<g id="edge22" class="edge">
<title>8&#45;&gt;3</title>
<path fill="none" stroke="black" d="M349.03,-90.61C279.77,-91.29 96.18,-104 23.04,-216 -8.5,-264.29 80.83,-288.05 141.35,-298.31"/>
<polygon fill="black" stroke="black" points="151.53,-299.96 140.94,-302.81 146.6,-299.16 141.66,-298.36 141.66,-298.36 141.66,-298.36 146.6,-299.16 142.38,-293.92 151.53,-299.96 151.53,-299.96"/>
</g>
<!-- 8&#45;&gt;5 -->
<g id="edge23" class="edge">
<title>8&#45;&gt;5</title>
<path fill="none" stroke="black" d="M348.91,-92.36C279.72,-96.29 98.79,-109.66 51.04,-144 21.66,-165.12 21.74,-180.88 13.04,-216 -11.39,-314.62 136.97,-353.97 229.26,-368.77"/>
<polygon fill="black" stroke="black" points="239.39,-370.33 228.82,-373.25 234.45,-369.57 229.51,-368.8 229.51,-368.8 229.51,-368.8 234.45,-369.57 230.2,-364.36 239.39,-370.33 239.39,-370.33"/>
</g>
<!-- 8&#45;&gt;7 -->
<g id="edge24" class="edge">
<title>8&#45;&gt;7</title>
<path fill="none" stroke="black" d="M348.8,-103.98C297.42,-128.46 185.7,-181.7 123.02,-211.57"/>
<polygon fill="black" stroke="black" points="113.77,-215.98 120.86,-207.61 118.28,-213.82 122.79,-211.67 122.79,-211.67 122.79,-211.67 118.28,-213.82 124.73,-215.74 113.77,-215.98 113.77,-215.98"/>
</g>
<!-- 9 -->
<g id="node10" class="node">
<title>9</title>
<polygon fill="none" stroke="black" points="395.54,-252 276.54,-252 276.54,-216 395.54,-216 395.54,-252"/>
<text text-anchor="middle" x="336.04" y="-230.3" font-family="Times,serif" font-size="14.00">manage_users</text>
</g>
<!-- 8&#45;&gt;9 -->
<g id="edge25" class="edge">
<title>8&#45;&gt;9</title>
<path fill="none" stroke="black" d="M369.38,-108.02C365.49,-118.34 360.65,-131.82 357.04,-144 350.99,-164.42 345.51,-187.88 341.67,-205.59"/>
<polygon fill="black" stroke="black" points="339.5,-215.79 337.18,-205.07 340.54,-210.9 341.58,-206.01 341.58,-206.01 341.58,-206.01 340.54,-210.9 345.98,-206.94 339.5,-215.79 339.5,-215.79"/>
</g>
<!-- 10 -->
<g id="node11" class="node">
<title>10</title>
<polygon fill="none" stroke="black" points="537.54,-252 452.54,-252 452.54,-216 537.54,-216 537.54,-252"/>
<text text-anchor="middle" x="495.04" y="-230.3" font-family="Times,serif" font-size="14.00">patienten</text>
</g>
<!-- 8&#45;&gt;10 -->
<g id="edge26" class="edge">
<title>8&#45;&gt;10</title>
<path fill="none" stroke="black" d="M403.23,-98.33C426.16,-105.95 458.04,-120.17 476.04,-144 489.39,-161.68 493.82,-186.7 495.09,-205.71"/>
<polygon fill="black" stroke="black" points="495.51,-215.84 490.6,-206.04 495.3,-210.85 495.09,-205.85 495.09,-205.85 495.09,-205.85 495.3,-210.85 499.59,-205.66 495.51,-215.84 495.51,-215.84"/>
</g>
<!-- 11 -->
<g id="node12" class="node">
<title>11</title>
<polygon fill="none" stroke="black" points="466.54,-180 365.54,-180 365.54,-144 466.54,-144 466.54,-180"/>
<text text-anchor="middle" x="416.04" y="-158.3" font-family="Times,serif" font-size="14.00">rechnungen</text>
</g>
<!-- 8&#45;&gt;11 -->
<g id="edge27" class="edge">
<title>8&#45;&gt;11</title>
<path fill="none" stroke="black" d="M385.92,-108.3C390.53,-116.36 396.1,-126.11 401.19,-135.02"/>
<polygon fill="black" stroke="black" points="406.26,-143.9 397.39,-137.45 403.78,-139.55 401.3,-135.21 401.3,-135.21 401.3,-135.21 403.78,-139.55 405.21,-132.98 406.26,-143.9 406.26,-143.9"/>
</g>
<!-- 16 -->
<g id="node17" class="node">
<title>16</title>
<polygon fill="none" stroke="black" points="800.04,-252 746.04,-252 746.04,-216 800.04,-216 800.04,-252"/>
<text text-anchor="middle" x="773.04" y="-230.3" font-family="Times,serif" font-size="14.00">user</text>
</g>
<!-- 8&#45;&gt;16 -->
<g id="edge28" class="edge">
<title>8&#45;&gt;16</title>
<path fill="none" stroke="black" d="M403.35,-102.14C473.12,-128.48 657.29,-194.36 736.32,-221.27"/>
<polygon fill="black" stroke="black" points="745.86,-224.5 734.95,-225.56 741.13,-222.9 736.39,-221.3 736.39,-221.3 736.39,-221.3 741.13,-222.9 737.83,-217.03 745.86,-224.5 745.86,-224.5"/>
</g>
<!-- 9&#45;&gt;3 -->
<g id="edge29" class="edge">
<title>9&#45;&gt;3</title>
<path fill="none" stroke="black" d="M300.81,-252.12C281.46,-261.53 257.26,-273.29 236.61,-283.33"/>
<polygon fill="black" stroke="black" points="227.4,-287.81 234.42,-279.39 231.9,-285.62 236.39,-283.44 236.39,-283.44 236.39,-283.44 231.9,-285.62 238.36,-287.49 227.4,-287.81 227.4,-287.81"/>
</g>
<!-- 9&#45;&gt;5 -->
<g id="edge30" class="edge">
<title>9&#45;&gt;5</title>
<path fill="none" stroke="black" d="M330.13,-252.07C326.67,-262.4 322.34,-275.88 319.04,-288 313.46,-308.5 308.23,-331.96 304.52,-349.64"/>
<polygon fill="black" stroke="black" points="302.42,-359.83 300.04,-349.12 303.43,-354.93 304.44,-350.03 304.44,-350.03 304.44,-350.03 303.43,-354.93 308.85,-350.94 302.42,-359.83 302.42,-359.83"/>
</g>
<!-- 9&#45;&gt;13 -->
<g id="edge31" class="edge">
<title>9&#45;&gt;13</title>
<path fill="none" stroke="black" d="M372,-252.12C391.91,-261.61 416.86,-273.49 438.06,-283.58"/>
<polygon fill="black" stroke="black" points="447.19,-287.93 436.23,-287.7 442.68,-285.78 438.16,-283.63 438.16,-283.63 438.16,-283.63 442.68,-285.78 440.1,-279.57 447.19,-287.93 447.19,-287.93"/>
</g>
<!-- 9&#45;&gt;15 -->
<g id="edge32" class="edge">
<title>9&#45;&gt;15</title>
<path fill="none" stroke="black" d="M341.72,-252.3C344.28,-260.1 347.37,-269.49 350.22,-278.17"/>
<polygon fill="black" stroke="black" points="353.42,-287.9 346.02,-279.8 351.86,-283.15 350.3,-278.4 350.3,-278.4 350.3,-278.4 351.86,-283.15 354.57,-276.99 353.42,-287.9 353.42,-287.9"/>
</g>
<!-- 10&#45;&gt;3 -->
<g id="edge33" class="edge">
<title>10&#45;&gt;3</title>
<path fill="none" stroke="black" d="M452.27,-244.88C397.06,-257.63 301.14,-279.79 242.45,-293.35"/>
<polygon fill="black" stroke="black" points="232.65,-295.62 241.38,-288.98 237.52,-294.49 242.4,-293.37 242.4,-293.37 242.4,-293.37 237.52,-294.49 243.41,-297.75 232.65,-295.62 232.65,-295.62"/>
</g>
<!-- 10&#45;&gt;5 -->
<g id="edge34" class="edge">
<title>10&#45;&gt;5</title>
<path fill="none" stroke="black" d="M531.06,-252.19C544.96,-260.84 559.33,-272.76 567.04,-288 574.26,-302.28 577.19,-311.64 567.04,-324 542.39,-353.99 439.68,-367.3 368.82,-373"/>
<polygon fill="black" stroke="black" points="358.61,-373.78 368.23,-368.53 363.6,-373.4 368.58,-373.01 368.58,-373.01 368.58,-373.01 363.6,-373.4 368.93,-377.5 358.61,-373.78 358.61,-373.78"/>
</g>
<!-- 10&#45;&gt;13 -->
<g id="edge35" class="edge">
<title>10&#45;&gt;13</title>
<path fill="none" stroke="black" d="M492.07,-252.3C490.75,-260.02 489.16,-269.29 487.68,-277.89"/>
<polygon fill="black" stroke="black" points="485.97,-287.9 483.22,-277.28 486.81,-282.97 487.66,-278.04 487.66,-278.04 487.66,-278.04 486.81,-282.97 492.09,-278.8 485.97,-287.9 485.97,-287.9"/>
</g>
<!-- 10&#45;&gt;15 -->
<g id="edge36" class="edge">
<title>10&#45;&gt;15</title>
<path fill="none" stroke="black" d="M461.77,-252.12C443.03,-261.77 419.49,-273.89 399.66,-284.09"/>
<polygon fill="black" stroke="black" points="390.56,-288.77 397.39,-280.2 395.01,-286.49 399.45,-284.2 399.45,-284.2 399.45,-284.2 395.01,-286.49 401.51,-288.2 390.56,-288.77 390.56,-288.77"/>
</g>
<!-- 11&#45;&gt;3 -->
<g id="edge37" class="edge">
<title>11&#45;&gt;3</title>
<path fill="none" stroke="black" d="M365.43,-166.63C300.96,-172.44 194.98,-186.32 171.04,-216 156.73,-233.73 165.06,-259.55 175.15,-278.82"/>
<polygon fill="black" stroke="black" points="180.15,-287.69 171.32,-281.19 177.7,-283.33 175.24,-278.98 175.24,-278.98 175.24,-278.98 177.7,-283.33 179.16,-276.77 180.15,-287.69 180.15,-287.69"/>
</g>
<!-- 11&#45;&gt;4 -->
<g id="edge38" class="edge">
<title>11&#45;&gt;4</title>
<path fill="none" stroke="black" d="M466.41,-180.03C495.46,-189.86 532.17,-202.27 562.74,-212.61"/>
<polygon fill="black" stroke="black" points="572.44,-215.89 561.52,-216.95 567.7,-214.29 562.96,-212.69 562.96,-212.69 562.96,-212.69 567.7,-214.29 564.41,-208.42 572.44,-215.89 572.44,-215.89"/>
</g>
<!-- 11&#45;&gt;13 -->
<g id="edge39" class="edge">
<title>11&#45;&gt;13</title>
<path fill="none" stroke="black" d="M466.63,-164.99C539.92,-169.04 670.06,-181.1 699.04,-216 740.63,-266.1 645.11,-288.37 568.09,-298"/>
<polygon fill="black" stroke="black" points="557.84,-299.23 567.23,-293.57 562.8,-298.63 567.77,-298.04 567.77,-298.04 567.77,-298.04 562.8,-298.63 568.3,-302.51 557.84,-299.23 557.84,-299.23"/>
</g>
<!-- 11&#45;&gt;15 -->
<g id="edge40" class="edge">
<title>11&#45;&gt;15</title>
<path fill="none" stroke="black" d="M416.82,-180.18C417.02,-198.71 415.42,-228.67 405.04,-252 400.46,-262.29 393.18,-272.06 385.76,-280.34"/>
<polygon fill="black" stroke="black" points="378.68,-287.8 382.31,-277.45 382.13,-284.17 385.57,-280.55 385.57,-280.55 385.57,-280.55 382.13,-284.17 388.83,-283.65 378.68,-287.8 378.68,-287.8"/>
</g>
<!-- 14&#45;&gt;6 -->
<g id="edge41" class="edge">
<title>14&#45;&gt;6</title>
<path fill="none" stroke="black" d="M871.22,-180.09C865.64,-198.53 855.46,-228.43 842.04,-252 836.49,-261.74 829.24,-271.59 822.33,-280.11"/>
<polygon fill="black" stroke="black" points="815.87,-287.82 818.84,-277.27 819.08,-283.99 822.29,-280.16 822.29,-280.16 822.29,-280.16 819.08,-283.99 825.74,-283.05 815.87,-287.82 815.87,-287.82"/>
</g>
<!-- 16&#45;&gt;3 -->
<g id="edge42" class="edge">
<title>16&#45;&gt;3</title>
<path fill="none" stroke="black" d="M745.79,-242.16C731.89,-245.58 714.65,-249.48 699.04,-252 531.56,-279.05 487.59,-268.74 319.04,-288 293.82,-290.88 265.85,-294.57 242.59,-297.78"/>
<polygon fill="black" stroke="black" points="232.6,-299.16 241.88,-293.33 237.55,-298.48 242.5,-297.79 242.5,-297.79 242.5,-297.79 237.55,-298.48 243.12,-302.25 232.6,-299.16 232.6,-299.16"/>
</g>
<!-- 16&#45;&gt;5 -->
<g id="edge43" class="edge">
<title>16&#45;&gt;5</title>
<path fill="none" stroke="black" d="M748.01,-252.12C717.03,-272.47 661.97,-305.96 610.04,-324 529.86,-351.85 432.8,-365.4 368.67,-371.76"/>
<polygon fill="black" stroke="black" points="358.66,-372.72 368.19,-367.29 363.64,-372.24 368.62,-371.77 368.62,-371.77 368.62,-371.77 363.64,-372.24 369.05,-376.25 358.66,-372.72 358.66,-372.72"/>
</g>
<!-- 16&#45;&gt;6 -->
<g id="edge44" class="edge">
<title>16&#45;&gt;6</title>
<path fill="none" stroke="black" d="M779.71,-252.3C782.75,-260.19 786.42,-269.7 789.8,-278.45"/>
<polygon fill="black" stroke="black" points="793.44,-287.9 785.64,-280.19 791.64,-283.23 789.84,-278.57 789.84,-278.57 789.84,-278.57 791.64,-283.23 794.04,-276.95 793.44,-287.9 793.44,-287.9"/>
</g>
<!-- 16&#45;&gt;8 -->
<g id="edge45" class="edge">
<title>16&#45;&gt;8</title>
<path fill="none" stroke="black" d="M745.91,-221.93C676.24,-195.62 491.67,-129.6 412.64,-102.69"/>
<polygon fill="black" stroke="black" points="403.1,-99.46 414.01,-98.4 407.83,-101.06 412.57,-102.66 412.57,-102.66 412.57,-102.66 407.83,-101.06 411.12,-106.93 403.1,-99.46 403.1,-99.46"/>
</g>
</g>
</svg>
