<?xml version="1.0" encoding="UTF-8" standalone="no"?><svg xmlns="http://www.w3.org/2000/svg" xmlns:xlink="http://www.w3.org/1999/xlink" contentScriptType="application/ecmascript" contentStyleType="text/css" height="684px" preserveAspectRatio="none" style="width:1745px;height:684px;" version="1.1" viewBox="0 0 1745 684" width="1745px" zoomAndPan="magnify"><defs><filter height="300%" id="f1iju955z0v8m7" width="300%" x="-1" y="-1"><feGaussianBlur result="blurOut" stdDeviation="2.0"/><feColorMatrix in="blurOut" result="blurOut2" type="matrix" values="0 0 0 0 0 0 0 0 0 0 0 0 0 0 0 0 0 0 .4 0"/><feOffset dx="4.0" dy="4.0" in="blurOut2" result="blurOut3"/><feBlend in="SourceGraphic" in2="blurOut3" mode="normal"/></filter></defs><g><rect fill="#FFFFFF" filter="url(#f1iju955z0v8m7)" height="84" style="stroke:#A80036;stroke-width:1.0;" width="10" x="142.5" y="118.2969"/><rect fill="#FFFFFF" filter="url(#f1iju955z0v8m7)" height="70" style="stroke:#A80036;stroke-width:1.0;" width="10" x="215" y="132.2969"/><rect fill="#FFFFFF" filter="url(#f1iju955z0v8m7)" height="56" style="stroke:#A80036;stroke-width:1.0;" width="10" x="303" y="146.2969"/><rect fill="#FFFFFF" filter="url(#f1iju955z0v8m7)" height="14" style="stroke:#A80036;stroke-width:1.0;" width="10" x="383.5" y="188.2969"/><rect fill="#FFFFFF" filter="url(#f1iju955z0v8m7)" height="30" style="stroke:#A80036;stroke-width:1.0;" width="10" x="383.5" y="552.2969"/><rect fill="#FFFFFF" filter="url(#f1iju955z0v8m7)" height="42" style="stroke:#A80036;stroke-width:1.0;" width="10" x="469.5" y="216.2969"/><rect fill="#FFFFFF" filter="url(#f1iju955z0v8m7)" height="361" style="stroke:#A80036;stroke-width:1.0;" width="10" x="589" y="230.2969"/><rect fill="#FFFFFF" filter="url(#f1iju955z0v8m7)" height="249" style="stroke:#A80036;stroke-width:1.0;" width="10" x="723.5" y="342.2969"/><rect fill="#FFFFFF" filter="url(#f1iju955z0v8m7)" height="249" style="stroke:#A80036;stroke-width:1.0;" width="10" x="856" y="342.2969"/><rect fill="#FFFFFF" filter="url(#f1iju955z0v8m7)" height="249" style="stroke:#A80036;stroke-width:1.0;" width="10" x="1000.5" y="342.2969"/><rect fill="#FFFFFF" filter="url(#f1iju955z0v8m7)" height="249" style="stroke:#A80036;stroke-width:1.0;" width="10" x="1135" y="342.2969"/><rect fill="#FFFFFF" filter="url(#f1iju955z0v8m7)" height="249" style="stroke:#A80036;stroke-width:1.0;" width="10" x="1256.5" y="342.2969"/><rect fill="#FFFFFF" filter="url(#f1iju955z0v8m7)" height="249" style="stroke:#A80036;stroke-width:1.0;" width="10" x="1367" y="342.2969"/><rect fill="#FFFFFF" filter="url(#f1iju955z0v8m7)" height="95" style="stroke:#A80036;stroke-width:1.0;" width="10" x="1488.5" y="496.2969"/><rect fill="#FFFFFF" filter="url(#f1iju955z0v8m7)" height="53" style="stroke:#A80036;stroke-width:1.0;" width="10" x="1613" y="538.2969"/><rect fill="#FFFFFF" filter="url(#f1iju955z0v8m7)" height="42" style="stroke:#A80036;stroke-width:1.0;" width="10" x="1704" y="160.2969"/><rect fill="#FFFFFF" filter="url(#f1iju955z0v8m7)" height="14" style="stroke:#A80036;stroke-width:1.0;" width="10" x="1704" y="244.2969"/><rect fill="#FFFFFF" filter="url(#f1iju955z0v8m7)" height="14" style="stroke:#A80036;stroke-width:1.0;" width="10" x="1704" y="356.2969"/><rect fill="#FFFFFF" filter="url(#f1iju955z0v8m7)" height="14" style="stroke:#A80036;stroke-width:1.0;" width="10" x="1704" y="384.2969"/><rect fill="#FFFFFF" filter="url(#f1iju955z0v8m7)" height="14" style="stroke:#A80036;stroke-width:1.0;" width="10" x="1704" y="412.2969"/><rect fill="#FFFFFF" filter="url(#f1iju955z0v8m7)" height="14" style="stroke:#A80036;stroke-width:1.0;" width="10" x="1704" y="440.2969"/><rect fill="#FFFFFF" filter="url(#f1iju955z0v8m7)" height="14" style="stroke:#A80036;stroke-width:1.0;" width="10" x="1704" y="468.2969"/><rect fill="#FFFFFF" filter="url(#f1iju955z0v8m7)" height="14" style="stroke:#A80036;stroke-width:1.0;" width="10" x="1704" y="510.2969"/><line style="stroke:#A80036;stroke-width:1.0;stroke-dasharray:5.0,5.0;" x1="22" x2="22" y1="88.2969" y2="600.2969"/><line style="stroke:#A80036;stroke-width:1.0;stroke-dasharray:5.0,5.0;" x1="82" x2="82" y1="88.2969" y2="600.2969"/><line style="stroke:#A80036;stroke-width:1.0;stroke-dasharray:5.0,5.0;" x1="147" x2="147" y1="88.2969" y2="600.2969"/><line style="stroke:#A80036;stroke-width:1.0;stroke-dasharray:5.0,5.0;" x1="220" x2="220" y1="88.2969" y2="600.2969"/><line style="stroke:#A80036;stroke-width:1.0;stroke-dasharray:5.0,5.0;" x1="308" x2="308" y1="88.2969" y2="600.2969"/><line style="stroke:#A80036;stroke-width:1.0;stroke-dasharray:5.0,5.0;" x1="388" x2="388" y1="88.2969" y2="600.2969"/><line style="stroke:#A80036;stroke-width:1.0;stroke-dasharray:5.0,5.0;" x1="474" x2="474" y1="88.2969" y2="600.2969"/><line style="stroke:#A80036;stroke-width:1.0;stroke-dasharray:5.0,5.0;" x1="594" x2="594" y1="88.2969" y2="600.2969"/><line style="stroke:#A80036;stroke-width:1.0;stroke-dasharray:5.0,5.0;" x1="728" x2="728" y1="88.2969" y2="600.2969"/><line style="stroke:#A80036;stroke-width:1.0;stroke-dasharray:5.0,5.0;" x1="861" x2="861" y1="88.2969" y2="600.2969"/><line style="stroke:#A80036;stroke-width:1.0;stroke-dasharray:5.0,5.0;" x1="1005" x2="1005" y1="88.2969" y2="600.2969"/><line style="stroke:#A80036;stroke-width:1.0;stroke-dasharray:5.0,5.0;" x1="1140" x2="1140" y1="88.2969" y2="600.2969"/><line style="stroke:#A80036;stroke-width:1.0;stroke-dasharray:5.0,5.0;" x1="1261" x2="1261" y1="88.2969" y2="600.2969"/><line style="stroke:#A80036;stroke-width:1.0;stroke-dasharray:5.0,5.0;" x1="1372" x2="1372" y1="88.2969" y2="600.2969"/><line style="stroke:#A80036;stroke-width:1.0;stroke-dasharray:5.0,5.0;" x1="1493" x2="1493" y1="88.2969" y2="600.2969"/><line style="stroke:#A80036;stroke-width:1.0;stroke-dasharray:5.0,5.0;" x1="1618" x2="1618" y1="88.2969" y2="600.2969"/><line style="stroke:#A80036;stroke-width:1.0;stroke-dasharray:5.0,5.0;" x1="1709" x2="1709" y1="88.2969" y2="600.2969"/><text fill="#000000" font-family="sans-serif" font-size="14" lengthAdjust="spacingAndGlyphs" textLength="28" x="5" y="84.9951">Bob</text><ellipse cx="22" cy="15" fill="#FF0000" filter="url(#f1iju955z0v8m7)" rx="8" ry="8" style="stroke:#A80036;stroke-width:2.0;"/><path d="M22,23 L22,50 M9,31 L35,31 M22,50 L9,65 M22,50 L35,65 " fill="none" filter="url(#f1iju955z0v8m7)" style="stroke:#A80036;stroke-width:2.0;"/><text fill="#000000" font-family="sans-serif" font-size="14" lengthAdjust="spacingAndGlyphs" textLength="28" x="5" y="612.292">Bob</text><ellipse cx="22" cy="625.5938" fill="#FF0000" filter="url(#f1iju955z0v8m7)" rx="8" ry="8" style="stroke:#A80036;stroke-width:2.0;"/><path d="M22,633.5938 L22,660.5938 M9,641.5938 L35,641.5938 M22,660.5938 L9,675.5938 M22,660.5938 L35,675.5938 " fill="none" filter="url(#f1iju955z0v8m7)" style="stroke:#A80036;stroke-width:2.0;"/><rect fill="#FEFECE" filter="url(#f1iju955z0v8m7)" height="30.2969" style="stroke:#A80036;stroke-width:1.5;" width="62" x="49" y="53"/><text fill="#000000" font-family="sans-serif" font-size="14" lengthAdjust="spacingAndGlyphs" textLength="48" x="56" y="72.9951">python</text><rect fill="#FEFECE" filter="url(#f1iju955z0v8m7)" height="30.2969" style="stroke:#A80036;stroke-width:1.5;" width="62" x="49" y="599.2969"/><text fill="#000000" font-family="sans-serif" font-size="14" lengthAdjust="spacingAndGlyphs" textLength="48" x="56" y="619.292">python</text><rect fill="#FEFECE" filter="url(#f1iju955z0v8m7)" height="30.2969" style="stroke:#A80036;stroke-width:1.5;" width="41" x="125" y="53"/><text fill="#000000" font-family="sans-serif" font-size="14" lengthAdjust="spacingAndGlyphs" textLength="27" x="132" y="72.9951">App</text><rect fill="#FEFECE" filter="url(#f1iju955z0v8m7)" height="30.2969" style="stroke:#A80036;stroke-width:1.5;" width="41" x="125" y="599.2969"/><text fill="#000000" font-family="sans-serif" font-size="14" lengthAdjust="spacingAndGlyphs" textLength="27" x="132" y="619.292">App</text><rect fill="#FEFECE" filter="url(#f1iju955z0v8m7)" height="30.2969" style="stroke:#A80036;stroke-width:1.5;" width="76" x="180" y="53"/><text fill="#000000" font-family="sans-serif" font-size="14" lengthAdjust="spacingAndGlyphs" textLength="62" x="187" y="72.9951">Start_Gui</text><rect fill="#FEFECE" filter="url(#f1iju955z0v8m7)" height="30.2969" style="stroke:#A80036;stroke-width:1.5;" width="76" x="180" y="599.2969"/><text fill="#000000" font-family="sans-serif" font-size="14" lengthAdjust="spacingAndGlyphs" textLength="62" x="187" y="619.292">Start_Gui</text><rect fill="#FEFECE" filter="url(#f1iju955z0v8m7)" height="30.2969" style="stroke:#A80036;stroke-width:1.5;" width="72" x="270" y="53"/><text fill="#000000" font-family="sans-serif" font-size="14" lengthAdjust="spacingAndGlyphs" textLength="58" x="277" y="72.9951">Register</text><rect fill="#FEFECE" filter="url(#f1iju955z0v8m7)" height="30.2969" style="stroke:#A80036;stroke-width:1.5;" width="72" x="270" y="599.2969"/><text fill="#000000" font-family="sans-serif" font-size="14" lengthAdjust="spacingAndGlyphs" textLength="58" x="277" y="619.292">Register</text><rect fill="#FEFECE" filter="url(#f1iju955z0v8m7)" height="30.2969" style="stroke:#A80036;stroke-width:1.5;" width="61" x="356" y="53"/><text fill="#000000" font-family="sans-serif" font-size="14" lengthAdjust="spacingAndGlyphs" textLength="47" x="363" y="72.9951">Cancel</text><rect fill="#FEFECE" filter="url(#f1iju955z0v8m7)" height="30.2969" style="stroke:#A80036;stroke-width:1.5;" width="61" x="356" y="599.2969"/><text fill="#000000" font-family="sans-serif" font-size="14" lengthAdjust="spacingAndGlyphs" textLength="47" x="363" y="619.292">Cancel</text><rect fill="#FEFECE" filter="url(#f1iju955z0v8m7)" height="30.2969" style="stroke:#A80036;stroke-width:1.5;" width="83" x="431" y="53"/><text fill="#000000" font-family="sans-serif" font-size="14" lengthAdjust="spacingAndGlyphs" textLength="69" x="438" y="72.9951">Einloggen</text><rect fill="#FEFECE" filter="url(#f1iju955z0v8m7)" height="30.2969" style="stroke:#A80036;stroke-width:1.5;" width="83" x="431" y="599.2969"/><text fill="#000000" font-family="sans-serif" font-size="14" lengthAdjust="spacingAndGlyphs" textLength="69" x="438" y="619.292">Einloggen</text><rect fill="#FEFECE" filter="url(#f1iju955z0v8m7)" height="30.2969" style="stroke:#A80036;stroke-width:1.5;" width="128" x="528" y="53"/><text fill="#000000" font-family="sans-serif" font-size="14" lengthAdjust="spacingAndGlyphs" textLength="114" x="535" y="72.9951">Auth_Bestätigen</text><rect fill="#FEFECE" filter="url(#f1iju955z0v8m7)" height="30.2969" style="stroke:#A80036;stroke-width:1.5;" width="128" x="528" y="599.2969"/><text fill="#000000" font-family="sans-serif" font-size="14" lengthAdjust="spacingAndGlyphs" textLength="114" x="535" y="619.292">Auth_Bestätigen</text><rect fill="#FEFECE" filter="url(#f1iju955z0v8m7)" height="30.2969" style="stroke:#A80036;stroke-width:1.5;" width="113" x="670" y="53"/><text fill="#000000" font-family="sans-serif" font-size="14" lengthAdjust="spacingAndGlyphs" textLength="99" x="677" y="72.9951">Patineten_Tab</text><rect fill="#FEFECE" filter="url(#f1iju955z0v8m7)" height="30.2969" style="stroke:#A80036;stroke-width:1.5;" width="113" x="670" y="599.2969"/><text fill="#000000" font-family="sans-serif" font-size="14" lengthAdjust="spacingAndGlyphs" textLength="99" x="677" y="619.292">Patineten_Tab</text><rect fill="#FEFECE" filter="url(#f1iju955z0v8m7)" height="30.2969" style="stroke:#A80036;stroke-width:1.5;" width="124" x="797" y="53"/><text fill="#000000" font-family="sans-serif" font-size="14" lengthAdjust="spacingAndGlyphs" textLength="110" x="804" y="72.9951">Leistungen_Tab</text><rect fill="#FEFECE" filter="url(#f1iju955z0v8m7)" height="30.2969" style="stroke:#A80036;stroke-width:1.5;" width="124" x="797" y="599.2969"/><text fill="#000000" font-family="sans-serif" font-size="14" lengthAdjust="spacingAndGlyphs" textLength="110" x="804" y="619.292">Leistungen_Tab</text><rect fill="#FEFECE" filter="url(#f1iju955z0v8m7)" height="30.2969" style="stroke:#A80036;stroke-width:1.5;" width="137" x="935" y="53"/><text fill="#000000" font-family="sans-serif" font-size="14" lengthAdjust="spacingAndGlyphs" textLength="123" x="942" y="72.9951">Rechnungen_Tab</text><rect fill="#FEFECE" filter="url(#f1iju955z0v8m7)" height="30.2969" style="stroke:#A80036;stroke-width:1.5;" width="137" x="935" y="599.2969"/><text fill="#000000" font-family="sans-serif" font-size="14" lengthAdjust="spacingAndGlyphs" textLength="123" x="942" y="619.292">Rechnungen_Tab</text><rect fill="#FEFECE" filter="url(#f1iju955z0v8m7)" height="30.2969" style="stroke:#A80036;stroke-width:1.5;" width="104" x="1086" y="53"/><text fill="#000000" font-family="sans-serif" font-size="14" lengthAdjust="spacingAndGlyphs" textLength="90" x="1093" y="72.9951">Termine_Tab</text><rect fill="#FEFECE" filter="url(#f1iju955z0v8m7)" height="30.2969" style="stroke:#A80036;stroke-width:1.5;" width="104" x="1086" y="599.2969"/><text fill="#000000" font-family="sans-serif" font-size="14" lengthAdjust="spacingAndGlyphs" textLength="90" x="1093" y="619.292">Termine_Tab</text><rect fill="#FEFECE" filter="url(#f1iju955z0v8m7)" height="30.2969" style="stroke:#A80036;stroke-width:1.5;" width="111" x="1204" y="53"/><text fill="#000000" font-family="sans-serif" font-size="14" lengthAdjust="spacingAndGlyphs" textLength="97" x="1211" y="72.9951">Benutzer_Tab</text><rect fill="#FEFECE" filter="url(#f1iju955z0v8m7)" height="30.2969" style="stroke:#A80036;stroke-width:1.5;" width="111" x="1204" y="599.2969"/><text fill="#000000" font-family="sans-serif" font-size="14" lengthAdjust="spacingAndGlyphs" textLength="97" x="1211" y="619.292">Benutzer_Tab</text><rect fill="#FEFECE" filter="url(#f1iju955z0v8m7)" height="30.2969" style="stroke:#A80036;stroke-width:1.5;" width="82" x="1329" y="53"/><text fill="#000000" font-family="sans-serif" font-size="14" lengthAdjust="spacingAndGlyphs" textLength="68" x="1336" y="72.9951">User_Icon</text><rect fill="#FEFECE" filter="url(#f1iju955z0v8m7)" height="30.2969" style="stroke:#A80036;stroke-width:1.5;" width="82" x="1329" y="599.2969"/><text fill="#000000" font-family="sans-serif" font-size="14" lengthAdjust="spacingAndGlyphs" textLength="68" x="1336" y="619.292">User_Icon</text><rect fill="#FEFECE" filter="url(#f1iju955z0v8m7)" height="30.2969" style="stroke:#A80036;stroke-width:1.5;" width="133" x="1425" y="53"/><text fill="#000000" font-family="sans-serif" font-size="14" lengthAdjust="spacingAndGlyphs" textLength="119" x="1432" y="72.9951">Passwort_ändern</text><rect fill="#FEFECE" filter="url(#f1iju955z0v8m7)" height="30.2969" style="stroke:#A80036;stroke-width:1.5;" width="133" x="1425" y="599.2969"/><text fill="#000000" font-family="sans-serif" font-size="14" lengthAdjust="spacingAndGlyphs" textLength="119" x="1432" y="619.292">Passwort_ändern</text><rect fill="#FEFECE" filter="url(#f1iju955z0v8m7)" height="30.2969" style="stroke:#A80036;stroke-width:1.5;" width="88" x="1572" y="53"/><text fill="#000000" font-family="sans-serif" font-size="14" lengthAdjust="spacingAndGlyphs" textLength="74" x="1579" y="72.9951">Ausloggen</text><rect fill="#FEFECE" filter="url(#f1iju955z0v8m7)" height="30.2969" style="stroke:#A80036;stroke-width:1.5;" width="88" x="1572" y="599.2969"/><text fill="#000000" font-family="sans-serif" font-size="14" lengthAdjust="spacingAndGlyphs" textLength="74" x="1579" y="619.292">Ausloggen</text><text fill="#000000" font-family="sans-serif" font-size="14" lengthAdjust="spacingAndGlyphs" textLength="64" x="1674" y="84.9951">database</text><path d="M1691,36 C1691,26 1709,26 1709,26 C1709,26 1727,26 1727,36 L1727,62 C1727,72 1709,72 1709,72 C1709,72 1691,72 1691,62 L1691,36 " fill="#FEFECE" filter="url(#f1iju955z0v8m7)" style="stroke:#000000;stroke-width:1.5;"/><path d="M1691,36 C1691,46 1709,46 1709,46 C1709,46 1727,46 1727,36 " fill="none" style="stroke:#000000;stroke-width:1.5;"/><text fill="#000000" font-family="sans-serif" font-size="14" lengthAdjust="spacingAndGlyphs" textLength="64" x="1674" y="612.292">database</text><path d="M1691,625.5938 C1691,615.5938 1709,615.5938 1709,615.5938 C1709,615.5938 1727,615.5938 1727,625.5938 L1727,651.5938 C1727,661.5938 1709,661.5938 1709,661.5938 C1709,661.5938 1691,661.5938 1691,651.5938 L1691,625.5938 " fill="#FEFECE" filter="url(#f1iju955z0v8m7)" style="stroke:#000000;stroke-width:1.5;"/><path d="M1691,625.5938 C1691,635.5938 1709,635.5938 1709,635.5938 C1709,635.5938 1727,635.5938 1727,625.5938 " fill="none" style="stroke:#000000;stroke-width:1.5;"/><rect fill="#FFFFFF" filter="url(#f1iju955z0v8m7)" height="84" style="stroke:#A80036;stroke-width:1.0;" width="10" x="142.5" y="118.2969"/><rect fill="#FFFFFF" filter="url(#f1iju955z0v8m7)" height="70" style="stroke:#A80036;stroke-width:1.0;" width="10" x="215" y="132.2969"/><rect fill="#FFFFFF" filter="url(#f1iju955z0v8m7)" height="56" style="stroke:#A80036;stroke-width:1.0;" width="10" x="303" y="146.2969"/><rect fill="#FFFFFF" filter="url(#f1iju955z0v8m7)" height="14" style="stroke:#A80036;stroke-width:1.0;" width="10" x="383.5" y="188.2969"/><rect fill="#FFFFFF" filter="url(#f1iju955z0v8m7)" height="30" style="stroke:#A80036;stroke-width:1.0;" width="10" x="383.5" y="552.2969"/><rect fill="#FFFFFF" filter="url(#f1iju955z0v8m7)" height="42" style="stroke:#A80036;stroke-width:1.0;" width="10" x="469.5" y="216.2969"/><rect fill="#FFFFFF" filter="url(#f1iju955z0v8m7)" height="361" style="stroke:#A80036;stroke-width:1.0;" width="10" x="589" y="230.2969"/><rect fill="#FFFFFF" filter="url(#f1iju955z0v8m7)" height="249" style="stroke:#A80036;stroke-width:1.0;" width="10" x="723.5" y="342.2969"/><rect fill="#FFFFFF" filter="url(#f1iju955z0v8m7)" height="249" style="stroke:#A80036;stroke-width:1.0;" width="10" x="856" y="342.2969"/><rect fill="#FFFFFF" filter="url(#f1iju955z0v8m7)" height="249" style="stroke:#A80036;stroke-width:1.0;" width="10" x="1000.5" y="342.2969"/><rect fill="#FFFFFF" filter="url(#f1iju955z0v8m7)" height="249" style="stroke:#A80036;stroke-width:1.0;" width="10" x="1135" y="342.2969"/><rect fill="#FFFFFF" filter="url(#f1iju955z0v8m7)" height="249" style="stroke:#A80036;stroke-width:1.0;" width="10" x="1256.5" y="342.2969"/><rect fill="#FFFFFF" filter="url(#f1iju955z0v8m7)" height="249" style="stroke:#A80036;stroke-width:1.0;" width="10" x="1367" y="342.2969"/><rect fill="#FFFFFF" filter="url(#f1iju955z0v8m7)" height="95" style="stroke:#A80036;stroke-width:1.0;" width="10" x="1488.5" y="496.2969"/><rect fill="#FFFFFF" filter="url(#f1iju955z0v8m7)" height="53" style="stroke:#A80036;stroke-width:1.0;" width="10" x="1613" y="538.2969"/><rect fill="#FFFFFF" filter="url(#f1iju955z0v8m7)" height="42" style="stroke:#A80036;stroke-width:1.0;" width="10" x="1704" y="160.2969"/><rect fill="#FFFFFF" filter="url(#f1iju955z0v8m7)" height="14" style="stroke:#A80036;stroke-width:1.0;" width="10" x="1704" y="244.2969"/><rect fill="#FFFFFF" filter="url(#f1iju955z0v8m7)" height="14" style="stroke:#A80036;stroke-width:1.0;" width="10" x="1704" y="356.2969"/><rect fill="#FFFFFF" filter="url(#f1iju955z0v8m7)" height="14" style="stroke:#A80036;stroke-width:1.0;" width="10" x="1704" y="384.2969"/><rect fill="#FFFFFF" filter="url(#f1iju955z0v8m7)" height="14" style="stroke:#A80036;stroke-width:1.0;" width="10" x="1704" y="412.2969"/><rect fill="#FFFFFF" filter="url(#f1iju955z0v8m7)" height="14" style="stroke:#A80036;stroke-width:1.0;" width="10" x="1704" y="440.2969"/><rect fill="#FFFFFF" filter="url(#f1iju955z0v8m7)" height="14" style="stroke:#A80036;stroke-width:1.0;" width="10" x="1704" y="468.2969"/><rect fill="#FFFFFF" filter="url(#f1iju955z0v8m7)" height="14" style="stroke:#A80036;stroke-width:1.0;" width="10" x="1704" y="510.2969"/><polygon fill="#FF0000" points="70,100.2969,80,104.2969,70,108.2969,74,104.2969" style="stroke:#FF0000;stroke-width:1.0;"/><line style="stroke:#FF0000;stroke-width:1.0;" x1="22" x2="76" y1="104.2969" y2="104.2969"/><polygon fill="#FF0000" points="130.5,114.2969,140.5,118.2969,130.5,122.2969,134.5,118.2969" style="stroke:#FF0000;stroke-width:1.0;"/><line style="stroke:#FF0000;stroke-width:1.0;" x1="82" x2="136.5" y1="118.2969" y2="118.2969"/><polygon fill="#FF0000" points="203,128.2969,213,132.2969,203,136.2969,207,132.2969" style="stroke:#FF0000;stroke-width:1.0;"/><line style="stroke:#FF0000;stroke-width:1.0;" x1="152.5" x2="209" y1="132.2969" y2="132.2969"/><polygon fill="#FF0000" points="291,142.2969,301,146.2969,291,150.2969,295,146.2969" style="stroke:#FF0000;stroke-width:1.0;"/><line style="stroke:#FF0000;stroke-width:1.0;" x1="225" x2="297" y1="146.2969" y2="146.2969"/><polygon fill="#FF0000" points="1692,156.2969,1702,160.2969,1692,164.2969,1696,160.2969" style="stroke:#FF0000;stroke-width:1.0;"/><line style="stroke:#FF0000;stroke-width:1.0;" x1="313" x2="1698" y1="160.2969" y2="160.2969"/><polygon fill="#0000FF" points="324,170.2969,314,174.2969,324,178.2969,320,174.2969" style="stroke:#0000FF;stroke-width:1.0;"/><line style="stroke:#0000FF;stroke-width:1.0;stroke-dasharray:2.0,2.0;" x1="318" x2="1703" y1="174.2969" y2="174.2969"/><polygon fill="#FF0000" points="371.5,184.2969,381.5,188.2969,371.5,192.2969,375.5,188.2969" style="stroke:#FF0000;stroke-width:1.0;"/><line style="stroke:#FF0000;stroke-width:1.0;" x1="313" x2="377.5" y1="188.2969" y2="188.2969"/><polygon fill="#0000FF" points="158.5,198.2969,148.5,202.2969,158.5,206.2969,154.5,202.2969" style="stroke:#0000FF;stroke-width:1.0;"/><line style="stroke:#0000FF;stroke-width:1.0;stroke-dasharray:2.0,2.0;" x1="152.5" x2="387.5" y1="202.2969" y2="202.2969"/><polygon fill="#FF0000" points="457.5,212.2969,467.5,216.2969,457.5,220.2969,461.5,216.2969" style="stroke:#FF0000;stroke-width:1.0;"/><line style="stroke:#FF0000;stroke-width:1.0;" x1="220" x2="463.5" y1="216.2969" y2="216.2969"/><polygon fill="#FF0000" points="577,226.2969,587,230.2969,577,234.2969,581,230.2969" style="stroke:#FF0000;stroke-width:1.0;"/><line style="stroke:#FF0000;stroke-width:1.0;" x1="479.5" x2="583" y1="230.2969" y2="230.2969"/><polygon fill="#FF0000" points="1692,240.2969,1702,244.2969,1692,248.2969,1696,244.2969" style="stroke:#FF0000;stroke-width:1.0;"/><line style="stroke:#FF0000;stroke-width:1.0;" x1="599" x2="1698" y1="244.2969" y2="244.2969"/><polygon fill="#0000FF" points="610,254.2969,600,258.2969,610,262.2969,606,258.2969" style="stroke:#0000FF;stroke-width:1.0;"/><line style="stroke:#0000FF;stroke-width:1.0;stroke-dasharray:2.0,2.0;" x1="604" x2="1708" y1="258.2969" y2="258.2969"/><polygon fill="#FF0000" points="716.5,268.2969,726.5,272.2969,716.5,276.2969,720.5,272.2969" style="stroke:#FF0000;stroke-width:1.0;"/><line style="stroke:#FF0000;stroke-width:1.0;" x1="599" x2="722.5" y1="272.2969" y2="272.2969"/><polygon fill="#FF0000" points="849,282.2969,859,286.2969,849,290.2969,853,286.2969" style="stroke:#FF0000;stroke-width:1.0;"/><line style="stroke:#FF0000;stroke-width:1.0;" x1="599" x2="855" y1="286.2969" y2="286.2969"/><polygon fill="#FF0000" points="993.5,296.2969,1003.5,300.2969,993.5,304.2969,997.5,300.2969" style="stroke:#FF0000;stroke-width:1.0;"/><line style="stroke:#FF0000;stroke-width:1.0;" x1="599" x2="999.5" y1="300.2969" y2="300.2969"/><polygon fill="#FF0000" points="1128,310.2969,1138,314.2969,1128,318.2969,1132,314.2969" style="stroke:#FF0000;stroke-width:1.0;"/><line style="stroke:#FF0000;stroke-width:1.0;" x1="599" x2="1134" y1="314.2969" y2="314.2969"/><polygon fill="#FF0000" points="1249.5,324.2969,1259.5,328.2969,1249.5,332.2969,1253.5,328.2969" style="stroke:#FF0000;stroke-width:1.0;"/><line style="stroke:#FF0000;stroke-width:1.0;" x1="599" x2="1255.5" y1="328.2969" y2="328.2969"/><polygon fill="#FF0000" points="1355,338.2969,1365,342.2969,1355,346.2969,1359,342.2969" style="stroke:#FF0000;stroke-width:1.0;"/><line style="stroke:#FF0000;stroke-width:1.0;" x1="599" x2="1361" y1="342.2969" y2="342.2969"/><polygon fill="#FF0000" points="1692,352.2969,1702,356.2969,1692,360.2969,1696,356.2969" style="stroke:#FF0000;stroke-width:1.0;"/><line style="stroke:#FF0000;stroke-width:1.0;" x1="733.5" x2="1698" y1="356.2969" y2="356.2969"/><polygon fill="#0000FF" points="744.5,366.2969,734.5,370.2969,744.5,374.2969,740.5,370.2969" style="stroke:#0000FF;stroke-width:1.0;"/><line style="stroke:#0000FF;stroke-width:1.0;stroke-dasharray:2.0,2.0;" x1="738.5" x2="1708" y1="370.2969" y2="370.2969"/><polygon fill="#FF0000" points="1692,380.2969,1702,384.2969,1692,388.2969,1696,384.2969" style="stroke:#FF0000;stroke-width:1.0;"/><line style="stroke:#FF0000;stroke-width:1.0;" x1="866" x2="1698" y1="384.2969" y2="384.2969"/><polygon fill="#0000FF" points="877,394.2969,867,398.2969,877,402.2969,873,398.2969" style="stroke:#0000FF;stroke-width:1.0;"/><line style="stroke:#0000FF;stroke-width:1.0;stroke-dasharray:2.0,2.0;" x1="871" x2="1708" y1="398.2969" y2="398.2969"/><polygon fill="#FF0000" points="1692,408.2969,1702,412.2969,1692,416.2969,1696,412.2969" style="stroke:#FF0000;stroke-width:1.0;"/><line style="stroke:#FF0000;stroke-width:1.0;" x1="1010.5" x2="1698" y1="412.2969" y2="412.2969"/><polygon fill="#0000FF" points="1021.5,422.2969,1011.5,426.2969,1021.5,430.2969,1017.5,426.2969" style="stroke:#0000FF;stroke-width:1.0;"/><line style="stroke:#0000FF;stroke-width:1.0;stroke-dasharray:2.0,2.0;" x1="1015.5" x2="1708" y1="426.2969" y2="426.2969"/><polygon fill="#FF0000" points="1692,436.2969,1702,440.2969,1692,444.2969,1696,440.2969" style="stroke:#FF0000;stroke-width:1.0;"/><line style="stroke:#FF0000;stroke-width:1.0;" x1="1145" x2="1698" y1="440.2969" y2="440.2969"/><polygon fill="#0000FF" points="1156,450.2969,1146,454.2969,1156,458.2969,1152,454.2969" style="stroke:#0000FF;stroke-width:1.0;"/><line style="stroke:#0000FF;stroke-width:1.0;stroke-dasharray:2.0,2.0;" x1="1150" x2="1708" y1="454.2969" y2="454.2969"/><polygon fill="#FF0000" points="1692,464.2969,1702,468.2969,1692,472.2969,1696,468.2969" style="stroke:#FF0000;stroke-width:1.0;"/><line style="stroke:#FF0000;stroke-width:1.0;" x1="1266.5" x2="1698" y1="468.2969" y2="468.2969"/><polygon fill="#0000FF" points="1277.5,478.2969,1267.5,482.2969,1277.5,486.2969,1273.5,482.2969" style="stroke:#0000FF;stroke-width:1.0;"/><line style="stroke:#0000FF;stroke-width:1.0;stroke-dasharray:2.0,2.0;" x1="1271.5" x2="1708" y1="482.2969" y2="482.2969"/><polygon fill="#FF0000" points="1476.5,492.2969,1486.5,496.2969,1476.5,500.2969,1480.5,496.2969" style="stroke:#FF0000;stroke-width:1.0;"/><line style="stroke:#FF0000;stroke-width:1.0;" x1="1377" x2="1482.5" y1="496.2969" y2="496.2969"/><polygon fill="#FF0000" points="1692,506.2969,1702,510.2969,1692,514.2969,1696,510.2969" style="stroke:#FF0000;stroke-width:1.0;"/><line style="stroke:#FF0000;stroke-width:1.0;" x1="1498.5" x2="1698" y1="510.2969" y2="510.2969"/><polygon fill="#0000FF" points="1509.5,520.2969,1499.5,524.2969,1509.5,528.2969,1505.5,524.2969" style="stroke:#0000FF;stroke-width:1.0;"/><line style="stroke:#0000FF;stroke-width:1.0;stroke-dasharray:2.0,2.0;" x1="1503.5" x2="1708" y1="524.2969" y2="524.2969"/><polygon fill="#FF0000" points="1601,534.2969,1611,538.2969,1601,542.2969,1605,538.2969" style="stroke:#FF0000;stroke-width:1.0;"/><line style="stroke:#FF0000;stroke-width:1.0;" x1="1377" x2="1607" y1="538.2969" y2="538.2969"/><polygon fill="#0000FF" points="404.5,548.2969,394.5,552.2969,404.5,556.2969,400.5,552.2969" style="stroke:#0000FF;stroke-width:1.0;"/><line style="stroke:#0000FF;stroke-width:1.0;stroke-dasharray:2.0,2.0;" x1="398.5" x2="1612" y1="552.2969" y2="552.2969"/><!--MD5=[a80d3e32c345a3f0c3703ba8eda79737]
@startuml
database    database    as Datenbanken
actor Bob #red
Bob -[#FF0000]> python:
python -[#FF0000]> App:
activate App
App -[#FF0000]> Start_Gui:
activate Start_Gui
Start_Gui -[#FF0000]> Register:
activate Register
Register -[#FF0000]> Datenbanken:
activate Datenbanken
Datenbanken -[#0000FF]-> Register:
Register -[#FF0000]> Cancel:
activate Cancel
Cancel -[#0000FF]-> App:
deactivate Cancel
deactivate App
deactivate Start_Gui
deactivate Datenbanken
deactivate Register
Start_Gui -[#FF0000]> Einloggen:
deactivate Datenbanken
deactivate Register
activate Einloggen
Einloggen -[#FF0000]> Auth_Bestätigen:
activate Auth_Bestätigen
Auth_Bestätigen -[#FF0000]> Datenbanken:
activate Datenbanken
Datenbanken -[#0000FF]-> Auth_Bestätigen:
deactivate Datenbanken
deactivate Register
deactivate Einloggen
Auth_Bestätigen -[#FF0000]> Patineten_Tab:
Auth_Bestätigen -[#FF0000]> Leistungen_Tab:
Auth_Bestätigen -[#FF0000]> Rechnungen_Tab:
Auth_Bestätigen -[#FF0000]> Termine_Tab:
Auth_Bestätigen -[#FF0000]> Benutzer_Tab:
Auth_Bestätigen -[#FF0000]> User_Icon:
activate Patineten_Tab
activate Leistungen_Tab
activate Rechnungen_Tab
activate Termine_Tab
activate Benutzer_Tab
activate User_Icon
Patineten_Tab -[#FF0000]> Datenbanken:
activate Datenbanken
Datenbanken -[#0000FF]-> Patineten_Tab:
deactivate Datenbanken

Leistungen_Tab -[#FF0000]> Datenbanken:
activate Datenbanken
Datenbanken -[#0000FF]-> Leistungen_Tab:
deactivate Datenbanken

Rechnungen_Tab -[#FF0000]> Datenbanken:
activate Datenbanken
Datenbanken -[#0000FF]-> Rechnungen_Tab:
deactivate Datenbanken

Termine_Tab -[#FF0000]> Datenbanken:
activate Datenbanken
Datenbanken -[#0000FF]-> Termine_Tab:
deactivate Datenbanken

Benutzer_Tab -[#FF0000]> Datenbanken:
activate Datenbanken
Datenbanken -[#0000FF]-> Benutzer_Tab:
deactivate Datenbanken

User_Icon -[#FF0000]> Passwort_ändern:
activate Passwort_ändern
Passwort_ändern -[#FF0000]> Datenbanken:
activate Datenbanken
Datenbanken -[#0000FF]-> Passwort_ändern:
deactivate Datenbanken

User_Icon -[#FF0000]> Ausloggen:
activate Ausloggen
Ausloggen -[#0000FF]-> Cancel:
activate Cancel
deactivate Cancel
database    database    as Datenbanken
@enduml

PlantUML version 1.2020.22(Sun Dec 06 09:36:27 UTC 2020)
(GPL source distribution)
Java Runtime: OpenJDK Runtime Environment
JVM: OpenJDK 64-Bit Server VM
Default Encoding: UTF-8
Language: en
Country: US
--></g></svg>